<?xml version="1.0" standalone="no"?>
<!DOCTYPE svg PUBLIC "-//W3C//DTD SVG 20010904//EN"
 "http://www.w3.org/TR/2001/REC-SVG-20010904/DTD/svg10.dtd">
<svg version="1.0" xmlns="http://www.w3.org/2000/svg"
 width="700.000000pt" height="700.000000pt" viewBox="0 0 700.000000 700.000000"
 preserveAspectRatio="xMidYMid meet">
<metadata>
Created by potrace 1.14, written by Peter Selinger 2001-2017
</metadata>
<g transform="translate(0.000000,700.000000) scale(0.100000,-0.100000)"
fill="#000000" stroke="none">
<path d="M157 4772 c1 -108 2 -208 2 -222 l1 -25 220 0 c189 0 220 2 221 15 1
22 1 381 0 408 l-1 22 -222 0 -223 0 2 -198z"/>
<path d="M4734 4560 c0 -225 -2 -411 -5 -414 -3 -3 -96 -6 -207 -7 l-202 -1
-1 -27 c-1 -30 -1 -391 0 -407 1 -7 69 -10 206 -9 113 0 205 -2 206 -5 1 -3 2
-297 3 -655 2 -693 2 -688 53 -789 32 -62 111 -140 170 -167 110 -50 81 -49
1011 -49 l872 0 1 22 c5 172 0 411 -9 417 -5 3 -378 6 -827 6 -449 -1 -819 3
-822 7 -3 7 -7 986 -4 1178 l1 35 830 0 830 -1 1 33 c0 18 0 101 0 183 0 83 0
168 0 190 l-1 39 -830 -2 c-824 -2 -830 -2 -831 18 0 11 0 199 0 418 l-1 397
-222 0 -222 0 0 -410z"/>
<path d="M164 4128 c-5 -8 -9 -1899 -5 -2071 l1 -27 222 2 221 3 -1 1030 c0
567 -1 1040 -1 1052 -1 22 -2 22 -216 21 -133 0 -218 -4 -221 -10z"/>
<path d="M990 3084 l0 -1054 222 2 222 3 0 827 c0 738 2 827 16 830 13 3 2015
2 2030 -1 3 -1 6 -369 5 -818 0 -450 1 -824 3 -830 3 -10 57 -13 223 -13 l219
0 0 870 c0 835 -1 872 -20 933 -26 82 -85 164 -161 221 -115 87 2 80 -1461 82
l-1298 2 0 -1054z"/>
</g>
</svg>
